<?xml version="1.0" encoding="utf-8"?>
<!-- Generator: Adobe Illustrator 17.0.2, SVG Export Plug-In . SVG Version: 6.00 Build 0)  -->
<!DOCTYPE svg PUBLIC "-//W3C//DTD SVG 1.1//EN" "http://www.w3.org/Graphics/SVG/1.1/DTD/svg11.dtd">
<svg version="1.1" id="Calque_1" xmlns="http://www.w3.org/2000/svg" xmlns:xlink="http://www.w3.org/1999/xlink" x="0px" y="0px"
	 width="100px" height="32.81px" viewBox="0 0 100 32.81" enable-background="new 0 0 100 32.81" xml:space="preserve">
<path fill="#282828" d="M100.156,28.382c0,2.445-1.982,4.428-4.426,4.428H4.427C1.983,32.81,0,30.827,0,28.382V4.475
	C0,2.03,1.983,0.048,4.427,0.048H95.73c2.445,0,4.426,1.983,4.426,4.427L100.156,28.382L100.156,28.382z"/>
<g id="PLAY_2_">
	<g>
		<g>
			<defs>
				<path id="SVGID_1_" d="M21.705,14.469l-4.516-2.607c0,0-8.227-4.751-8.711-5.03c-0.484-0.279-0.966-0.11-0.966,0.473
					c0,0.972,0,10.143,0,10.143s0,9.911,0,10.349c0,0.437,0.344,0.626,0.765,0.384c0.42-0.243,8.912-5.146,8.912-5.146l4.516-2.607
					c0,0,3.832-2.212,4.341-2.506c0.509-0.294,0.46-0.698,0.031-0.929C25.647,16.761,21.705,14.469,21.705,14.469z"/>
			</defs>
			<clipPath id="SVGID_2_">
				<use xlink:href="#SVGID_1_"  overflow="visible"/>
			</clipPath>
			
				<linearGradient id="SVGID_3_" gradientUnits="userSpaceOnUse" x1="2113.6455" y1="-1006.33" x2="2113.6455" y2="-1004.4811" gradientTransform="matrix(12 0 0 12 -25350.6406 12082.3145)">
				<stop  offset="0" style="stop-color:#257CB0"/>
				<stop  offset="0.2863" style="stop-color:#4A93B5"/>
				<stop  offset="0.767" style="stop-color:#78BCBB"/>
				<stop  offset="1" style="stop-color:#89CFBD"/>
			</linearGradient>
			<polygon clip-path="url(#SVGID_2_)" fill="url(#SVGID_3_)" points="7.512,6.355 7.512,17.448 7.512,28.542 18.7,17.449 			"/>
		</g>
	</g>
	<g>
		<g>
			<defs>
				<path id="SVGID_4_" d="M21.705,14.469l-4.516-2.607c0,0-8.227-4.751-8.711-5.03c-0.484-0.279-0.966-0.11-0.966,0.473
					c0,0.972,0,10.143,0,10.143s0,9.911,0,10.349c0,0.437,0.344,0.626,0.765,0.384c0.42-0.243,8.912-5.146,8.912-5.146l4.516-2.607
					c0,0,3.832-2.212,4.341-2.506c0.509-0.294,0.46-0.698,0.031-0.929C25.647,16.761,21.705,14.469,21.705,14.469z"/>
			</defs>
			<clipPath id="SVGID_5_">
				<use xlink:href="#SVGID_4_"  overflow="visible"/>
			</clipPath>
			
				<linearGradient id="SVGID_6_" gradientUnits="userSpaceOnUse" x1="2113.1794" y1="-1005.8711" x2="2114.3621" y2="-1005.8711" gradientTransform="matrix(12 0 0 12 -25350.6406 12082.3145)">
				<stop  offset="0" style="stop-color:#52C1AD"/>
				<stop  offset="1" style="stop-color:#DEE89A"/>
			</linearGradient>
			<polygon clip-path="url(#SVGID_5_)" fill="url(#SVGID_6_)" points="21.705,14.469 17.189,11.862 7.512,6.275 7.512,6.355 
				18.7,17.449 			"/>
		</g>
	</g>
	<g>
		<g>
			<defs>
				<path id="SVGID_7_" d="M21.705,14.469l-4.516-2.607c0,0-8.227-4.751-8.711-5.03c-0.484-0.279-0.966-0.11-0.966,0.473
					c0,0.972,0,10.143,0,10.143s0,9.911,0,10.349c0,0.437,0.344,0.626,0.765,0.384c0.42-0.243,8.912-5.146,8.912-5.146l4.516-2.607
					c0,0,3.832-2.212,4.341-2.506c0.509-0.294,0.46-0.698,0.031-0.929C25.647,16.761,21.705,14.469,21.705,14.469z"/>
			</defs>
			<clipPath id="SVGID_8_">
				<use xlink:href="#SVGID_7_"  overflow="visible"/>
			</clipPath>
			
				<linearGradient id="SVGID_9_" gradientUnits="userSpaceOnUse" x1="2113.7708" y1="-1005.4055" x2="2113.7708" y2="-1004.4743" gradientTransform="matrix(12 0 0 12 -25350.6406 12082.3145)">
				<stop  offset="0" style="stop-color:#EC413D"/>
				<stop  offset="0.1668" style="stop-color:#DA4452"/>
				<stop  offset="0.5748" style="stop-color:#B0487A"/>
				<stop  offset="0.8619" style="stop-color:#954A92"/>
				<stop  offset="1" style="stop-color:#8A4A9D"/>
			</linearGradient>
			<polygon clip-path="url(#SVGID_8_)" fill="url(#SVGID_9_)" points="7.512,28.542 7.512,28.622 17.189,23.035 21.705,20.428 
				18.7,17.449 			"/>
		</g>
	</g>
	<g>
		<g>
			<defs>
				<path id="SVGID_10_" d="M21.705,14.469l-4.516-2.607c0,0-8.227-4.751-8.711-5.03c-0.484-0.279-0.966-0.11-0.966,0.473
					c0,0.972,0,10.143,0,10.143s0,9.911,0,10.349c0,0.437,0.344,0.626,0.765,0.384c0.42-0.243,8.912-5.146,8.912-5.146l4.516-2.607
					c0,0,3.832-2.212,4.341-2.506c0.509-0.294,0.46-0.698,0.031-0.929C25.647,16.761,21.705,14.469,21.705,14.469z"/>
			</defs>
			<clipPath id="SVGID_11_">
				<use xlink:href="#SVGID_10_"  overflow="visible"/>
			</clipPath>
			
				<linearGradient id="SVGID_12_" gradientUnits="userSpaceOnUse" x1="2114.4519" y1="-1005.6538" x2="2114.4519" y2="-1005.1572" gradientTransform="matrix(12 0 0 12 -25350.6406 12082.3145)">
				<stop  offset="0" style="stop-color:#F58879"/>
				<stop  offset="0.1194" style="stop-color:#F69079"/>
				<stop  offset="0.7128" style="stop-color:#FCB877"/>
				<stop  offset="1" style="stop-color:#FEC874"/>
			</linearGradient>
			<polygon clip-path="url(#SVGID_11_)" fill="url(#SVGID_12_)" points="21.705,14.469 18.7,17.449 21.705,20.428 26.866,17.448 			
				"/>
		</g>
	</g>
</g>
<path fill="#F9F9F9" d="M77.946,21.786c-0.42,0-0.804-0.078-1.151-0.232c-0.347-0.155-0.639-0.394-0.875-0.715h-0.07
	c0.047,0.377,0.07,0.734,0.07,1.071v2.655h-0.977v-9.349h0.795l0.135,0.883h0.047c0.251-0.353,0.544-0.608,0.877-0.765
	c0.333-0.157,0.716-0.236,1.148-0.236c0.856,0,1.516,0.293,1.981,0.877c0.465,0.585,0.698,1.405,0.698,2.461
	c0,1.06-0.237,1.883-0.709,2.47C79.443,21.492,78.787,21.786,77.946,21.786z M77.805,15.928c-0.659,0-1.136,0.183-1.43,0.548
	c-0.294,0.365-0.445,0.946-0.454,1.743v0.218c0,0.907,0.151,1.555,0.454,1.946s0.787,0.585,1.454,0.585
	c0.558,0,0.994-0.225,1.31-0.677c0.316-0.451,0.474-1.073,0.474-1.867c0-0.804-0.158-1.422-0.474-1.851
	C78.823,16.142,78.378,15.928,77.805,15.928z"/>
<path fill="#F9F9F9" d="M82.888,21.668h-0.977v-9.16h0.977V21.668z"/>
<path fill="#F9F9F9" d="M88.506,21.668l-0.194-0.918h-0.047c-0.322,0.405-0.643,0.679-0.963,0.821
	c-0.32,0.144-0.719,0.215-1.198,0.215c-0.64,0-1.141-0.165-1.504-0.494c-0.363-0.33-0.545-0.798-0.545-1.407
	c0-1.303,1.042-1.986,3.126-2.049l1.095-0.035v-0.4c0-0.506-0.109-0.88-0.327-1.121c-0.218-0.242-0.566-0.362-1.045-0.362
	c-0.538,0-1.146,0.165-1.825,0.494l-0.3-0.748c0.318-0.173,0.666-0.308,1.045-0.406c0.379-0.098,0.758-0.147,1.139-0.147
	c0.769,0,1.339,0.171,1.71,0.512c0.371,0.342,0.556,0.889,0.556,1.643v4.403L88.506,21.668L88.506,21.668L88.506,21.668z
	 M86.299,20.979c0.608,0,1.086-0.167,1.433-0.5c0.347-0.333,0.521-0.801,0.521-1.401v-0.583l-0.978,0.041
	c-0.777,0.028-1.337,0.148-1.681,0.363c-0.343,0.214-0.515,0.547-0.515,0.998c0,0.353,0.107,0.622,0.321,0.806
	C85.615,20.887,85.914,20.979,86.299,20.979z"/>
<path fill="#F9F9F9" d="M89.798,15.215h1.048l1.413,3.68c0.31,0.84,0.502,1.446,0.577,1.819h0.047
	c0.051-0.201,0.158-0.543,0.321-1.028c0.163-0.485,0.696-1.975,1.598-4.471h1.048l-2.773,7.347
	c-0.275,0.726-0.595,1.241-0.963,1.546c-0.367,0.304-0.817,0.456-1.351,0.456c-0.298,0-0.593-0.033-0.884-0.1v-0.783
	c0.216,0.047,0.457,0.071,0.724,0.071c0.671,0,1.15-0.377,1.437-1.13l0.359-0.918L89.798,15.215z"/>
<path fill="#F9F9F9" d="M59.843,15.815c0.31,0.257,0.958,0.796,0.958,1.822c0,0.998-0.567,1.471-1.134,1.916
	c-0.175,0.175-0.378,0.365-0.378,0.662c0,0.296,0.202,0.458,0.351,0.58l0.486,0.377c0.594,0.5,1.133,0.959,1.133,1.89
	c0,1.268-1.228,2.55-3.549,2.55c-1.957,0-2.901-0.931-2.901-1.93c0-0.486,0.242-1.174,1.039-1.646
	c0.836-0.513,1.971-0.58,2.578-0.621c-0.19-0.243-0.405-0.499-0.405-0.917c0-0.229,0.068-0.364,0.135-0.527
	c-0.149,0.014-0.297,0.027-0.432,0.027c-1.43,0-2.24-1.066-2.24-2.118c0-0.621,0.284-1.31,0.863-1.808
	c0.77-0.634,1.687-0.743,2.417-0.743h2.779l-0.864,0.486L59.843,15.815L59.843,15.815L59.843,15.815z M58.885,21.807
	c-0.108-0.014-0.176-0.014-0.31-0.014c-0.121,0-0.851,0.028-1.417,0.217c-0.297,0.107-1.161,0.431-1.161,1.39
	c0,0.958,0.932,1.647,2.376,1.647c1.295,0,1.984-0.622,1.984-1.458C60.356,22.899,59.911,22.536,58.885,21.807z M59.276,19.243
	c0.31-0.311,0.337-0.742,0.337-0.985c0-0.971-0.58-2.483-1.7-2.483c-0.351,0-0.729,0.175-0.945,0.445
	c-0.229,0.283-0.297,0.647-0.297,0.999c0,0.904,0.526,2.402,1.688,2.402C58.696,19.621,59.06,19.459,59.276,19.243z"/>
<path fill="#F9F9F9" d="M51.347,21.591c-2.142,0-3.287-1.671-3.287-3.18c0-1.765,1.441-3.274,3.49-3.274
	c1.98,0,3.219,1.549,3.219,3.18C54.769,19.906,53.544,21.591,51.347,21.591z M53.031,20.5c0.324-0.432,0.405-0.97,0.405-1.496
	c0-1.186-0.566-3.449-2.237-3.449c-0.445,0-0.889,0.175-1.212,0.459c-0.526,0.471-0.62,1.064-0.62,1.644
	c0,1.333,0.66,3.529,2.291,3.529C52.183,21.186,52.722,20.931,53.031,20.5z"/>
<path fill="#F9F9F9" d="M44.044,21.591c-2.142,0-3.288-1.671-3.288-3.18c0-1.765,1.442-3.274,3.49-3.274
	c1.98,0,3.22,1.549,3.22,3.18C47.466,19.906,46.241,21.591,44.044,21.591z M45.728,20.5c0.323-0.432,0.404-0.97,0.404-1.496
	c0-1.186-0.566-3.449-2.237-3.449c-0.444,0-0.889,0.175-1.212,0.459c-0.526,0.471-0.62,1.064-0.62,1.644
	c0,1.333,0.66,3.529,2.291,3.529C44.88,21.186,45.419,20.931,45.728,20.5z"/>
<path fill="#F9F9F9" d="M39.727,21.38l-1.937,0.447c-0.786,0.122-1.49,0.23-2.235,0.23c-3.739,0-5.161-2.75-5.161-4.904
	c0-2.628,2.018-5.065,5.473-5.065c0.732,0,1.436,0.108,2.072,0.284c1.016,0.285,1.49,0.636,1.788,0.84l-1.125,1.07l-0.474,0.108
	l0.339-0.542c-0.46-0.447-1.301-1.273-2.899-1.273c-2.14,0-3.753,1.626-3.753,3.997c0,2.546,1.843,4.944,4.795,4.944
	c0.868,0,1.314-0.176,1.721-0.339v-2.18l-2.045,0.108l1.083-0.583h2.872l-0.352,0.339c-0.096,0.082-0.109,0.109-0.136,0.216
	c-0.014,0.122-0.027,0.515-0.027,0.651L39.727,21.38L39.727,21.38L39.727,21.38z"/>
<path fill="#F9F9F9" d="M64.125,20.99c-0.447-0.041-0.541-0.122-0.541-0.651V20.19v-7.518c0.003-0.029,0.005-0.059,0.007-0.087
	c0.055-0.474,0.19-0.555,0.61-0.799h-1.938l-1.016,0.488h1.036v0.006l-0.001-0.005v7.916v0.447c0,0.27-0.053,0.312-0.365,0.717
	h2.398l0.501-0.297C64.586,21.03,64.355,21.017,64.125,20.99z"/>
<path fill="#F9F9F9" d="M69.637,21.115c-0.147,0.081-0.295,0.175-0.443,0.242c-0.445,0.202-0.902,0.256-1.306,0.256
	c-0.429,0-1.103-0.028-1.789-0.525c-0.954-0.673-1.371-1.83-1.371-2.839c0-2.085,1.695-3.107,3.081-3.107
	c0.484,0,0.983,0.121,1.386,0.377c0.672,0.443,0.847,1.022,0.941,1.331l-3.161,1.278l-1.036,0.081
	c0.336,1.708,1.493,2.703,2.771,2.703c0.686,0,1.184-0.242,1.641-0.47L69.637,21.115z M68.373,17.105
	c0.255-0.094,0.39-0.175,0.39-0.363c0-0.538-0.605-1.157-1.332-1.157c-0.539,0-1.547,0.417-1.547,1.87
	c0,0.229,0.027,0.471,0.041,0.714L68.373,17.105z"/>
<path fill="#F9F9F9" d="M70.936,15.234v0.888h-0.108v-0.888h-0.294v-0.092h0.695v0.092H70.936z"/>
<path fill="#F9F9F9" d="M72.146,16.121v-0.896h-0.005l-0.273,0.896h-0.084l-0.276-0.896h-0.004v0.896h-0.098v-0.98h0.168
	l0.249,0.792h0.004l0.246-0.792h0.17v0.98H72.146z"/>
<path fill="#F9F9FA" d="M33.084,9.45h-0.673c0-0.093-0.064-0.355-0.192-0.787h-0.972C31.116,9.088,31.05,9.35,31.05,9.45h-0.633
	c0-0.055,0.164-0.503,0.491-1.346c0.327-0.843,0.491-1.307,0.491-1.392h0.795c0,0.08,0.148,0.537,0.445,1.372
	C32.936,8.919,33.084,9.374,33.084,9.45z M32.112,8.261c-0.24-0.724-0.36-1.115-0.36-1.174h-0.034c0,0.055-0.124,0.446-0.372,1.174
	H32.112z"/>
<path fill="#F9F9FA" d="M35.796,9.45h-0.519c0-0.058-0.193-0.361-0.578-0.911c-0.404-0.579-0.634-0.975-0.69-1.188h-0.034
	c0.035,0.307,0.053,0.585,0.053,0.833c0,0.346,0.01,0.769,0.029,1.266h-0.518c0.021-0.435,0.032-0.912,0.032-1.432
	c0-0.512-0.011-0.947-0.032-1.306h0.625c0,0.074,0.173,0.371,0.52,0.89c0.369,0.551,0.581,0.925,0.635,1.121h0.032
	C35.317,8.41,35.3,8.129,35.3,7.881c0-0.38-0.01-0.77-0.029-1.17h0.526c-0.02,0.348-0.029,0.783-0.029,1.306
	C35.767,8.545,35.777,9.022,35.796,9.45z"/>
<path fill="#F9F9FA" d="M38.845,7.986c0,0.398-0.128,0.746-0.383,1.043c-0.255,0.297-0.613,0.446-1.073,0.446
	c-0.208,0-0.494-0.008-0.858-0.025c0.018-0.424,0.027-0.901,0.027-1.432c0-0.51-0.009-0.946-0.027-1.306h0.368
	c0.06,0,0.15-0.002,0.269-0.006c0.119-0.004,0.197-0.006,0.233-0.006c0.506,0,0.873,0.126,1.101,0.379
	C38.731,7.33,38.845,7.632,38.845,7.986z M38.271,8.076c0-0.269-0.079-0.496-0.236-0.681c-0.157-0.184-0.397-0.276-0.719-0.276
	c-0.06,0-0.143,0.006-0.248,0.019c0.014,0.281,0.021,0.574,0.021,0.879c0,0.335,0.007,0.668,0.021,0.997
	c0.091,0.018,0.182,0.027,0.273,0.027c0.302,0,0.525-0.094,0.67-0.281C38.198,8.574,38.271,8.345,38.271,8.076z"/>
<path fill="#F9F9FA" d="M41.656,9.45h-0.623c-0.163-0.496-0.287-0.803-0.374-0.919c-0.087-0.117-0.227-0.175-0.421-0.175
	c-0.081,0-0.159,0.001-0.233,0.002c0,0.36,0.006,0.724,0.019,1.092H39.44c0.018-0.424,0.027-0.901,0.027-1.432
	c0-0.51-0.009-0.946-0.027-1.306h0.364c0.042,0,0.13-0.002,0.264-0.006c0.134-0.004,0.258-0.006,0.371-0.006
	c0.644,0,0.966,0.22,0.966,0.66c0,0.349-0.184,0.592-0.551,0.73v0.032c0.142,0.039,0.266,0.15,0.372,0.331
	C41.332,8.633,41.476,8.966,41.656,9.45z M40.868,7.515c0-0.279-0.18-0.419-0.538-0.419c-0.132,0-0.248,0.01-0.349,0.029
	c0.015,0.217,0.023,0.501,0.023,0.85c0.077,0.003,0.142,0.004,0.196,0.004C40.645,7.979,40.868,7.825,40.868,7.515z"/>
<path fill="#F9F9FA" d="M44.672,8.03c0,0.43-0.132,0.787-0.396,1.071c-0.264,0.283-0.59,0.425-0.978,0.425
	c-0.37,0-0.68-0.13-0.93-0.39c-0.25-0.26-0.374-0.591-0.374-0.992c0-0.43,0.132-0.787,0.396-1.071
	c0.264-0.283,0.59-0.425,0.978-0.425c0.37,0,0.68,0.13,0.93,0.389S44.672,7.627,44.672,8.03z M44.091,8.091
	c0-0.293-0.075-0.531-0.225-0.713c-0.15-0.182-0.335-0.273-0.555-0.273c-0.205,0-0.379,0.092-0.522,0.276
	c-0.143,0.184-0.215,0.416-0.215,0.696c0,0.292,0.075,0.529,0.226,0.712c0.151,0.183,0.335,0.275,0.554,0.275
	c0.205,0,0.379-0.092,0.522-0.277C44.02,8.602,44.091,8.37,44.091,8.091z"/>
<path fill="#F9F9FA" d="M45.861,9.45h-0.595c0.018-0.435,0.027-0.912,0.027-1.432c0-0.512-0.009-0.947-0.027-1.306h0.595
	c-0.018,0.353-0.027,0.789-0.027,1.306C45.834,8.546,45.843,9.024,45.861,9.45z"/>
<path fill="#F9F9FA" d="M48.91,7.986c0,0.398-0.128,0.746-0.383,1.043c-0.255,0.297-0.613,0.446-1.073,0.446
	c-0.208,0-0.494-0.008-0.858-0.025c0.018-0.424,0.027-0.901,0.027-1.432c0-0.51-0.009-0.946-0.027-1.306h0.368
	c0.06,0,0.15-0.002,0.269-0.006c0.119-0.004,0.197-0.006,0.233-0.006c0.506,0,0.873,0.126,1.101,0.379
	C48.796,7.33,48.91,7.632,48.91,7.986z M48.336,8.076c0-0.269-0.079-0.496-0.236-0.681c-0.157-0.184-0.397-0.276-0.719-0.276
	c-0.06,0-0.143,0.006-0.248,0.019c0.014,0.281,0.021,0.574,0.021,0.879c0,0.335,0.007,0.668,0.021,0.997
	c0.091,0.018,0.182,0.027,0.273,0.027c0.302,0,0.525-0.094,0.67-0.281C48.263,8.574,48.336,8.345,48.336,8.076z"/>
<path fill="#F9F9FA" d="M52.955,9.45h-0.673c0-0.093-0.064-0.355-0.192-0.787h-0.972C50.986,9.088,50.92,9.35,50.92,9.45h-0.633
	c0-0.055,0.164-0.503,0.491-1.346s0.491-1.307,0.491-1.392h0.795c0,0.08,0.148,0.537,0.445,1.372
	C52.806,8.919,52.955,9.374,52.955,9.45z M51.983,8.261c-0.24-0.724-0.36-1.115-0.36-1.174h-0.034c0,0.055-0.124,0.446-0.372,1.174
	H51.983z"/>
<path fill="#F9F9FA" d="M55.408,7.428c0,0.335-0.125,0.583-0.373,0.743s-0.554,0.24-0.916,0.24c-0.066,0-0.113-0.001-0.141-0.004
	c0,0.264,0.008,0.611,0.023,1.043H53.41c0.018-0.405,0.027-0.883,0.027-1.432c0-0.505-0.009-0.94-0.027-1.306h0.366
	c0.052,0,0.151-0.002,0.299-0.006c0.147-0.004,0.275-0.006,0.383-0.006c0.266,0,0.492,0.06,0.675,0.181
	C55.316,7,55.408,7.183,55.408,7.428z M54.866,7.544c0-0.3-0.199-0.45-0.597-0.45c-0.1,0-0.205,0.011-0.315,0.032
	c0.015,0.265,0.023,0.565,0.023,0.9c0.035,0.003,0.076,0.004,0.122,0.004C54.61,8.03,54.866,7.868,54.866,7.544z"/>
<path fill="#F9F9FA" d="M57.931,7.428c0,0.335-0.125,0.583-0.373,0.743c-0.249,0.16-0.554,0.24-0.916,0.24
	c-0.066,0-0.113-0.001-0.141-0.004c0,0.264,0.008,0.611,0.023,1.043h-0.591c0.018-0.405,0.027-0.883,0.027-1.432
	c0-0.505-0.009-0.94-0.027-1.306h0.366c0.052,0,0.151-0.002,0.299-0.006c0.147-0.004,0.275-0.006,0.383-0.006
	c0.266,0,0.492,0.06,0.675,0.181C57.839,7,57.931,7.183,57.931,7.428z M57.389,7.544c0-0.3-0.199-0.45-0.597-0.45
	c-0.1,0-0.205,0.011-0.315,0.032c0.015,0.265,0.023,0.565,0.023,0.9c0.035,0.003,0.076,0.004,0.122,0.004
	C57.133,8.03,57.389,7.868,57.389,7.544z"/>
<path fill="#F9F9FA" d="M62.056,8.03c0,0.43-0.132,0.787-0.396,1.071c-0.264,0.283-0.59,0.425-0.978,0.425
	c-0.37,0-0.68-0.13-0.93-0.39c-0.249-0.26-0.374-0.591-0.374-0.992c0-0.43,0.132-0.787,0.396-1.071
	c0.264-0.283,0.59-0.425,0.978-0.425c0.37,0,0.68,0.13,0.93,0.389C61.931,7.297,62.056,7.627,62.056,8.03z M61.475,8.091
	c0-0.293-0.075-0.531-0.225-0.713c-0.15-0.182-0.335-0.273-0.555-0.273c-0.205,0-0.379,0.092-0.522,0.276
	c-0.143,0.184-0.215,0.416-0.215,0.696c0,0.292,0.075,0.529,0.226,0.712c0.151,0.183,0.335,0.275,0.554,0.275
	c0.205,0,0.379-0.092,0.522-0.277C61.404,8.602,61.475,8.37,61.475,8.091z"/>
<path fill="#F9F9FA" d="M64.907,9.45h-0.52c0-0.058-0.193-0.361-0.578-0.911c-0.404-0.579-0.634-0.975-0.69-1.188h-0.034
	c0.035,0.307,0.053,0.585,0.053,0.833c0,0.346,0.01,0.769,0.029,1.266H62.65c0.021-0.435,0.032-0.912,0.032-1.432
	c0-0.512-0.011-0.947-0.032-1.306h0.625c0,0.074,0.173,0.371,0.52,0.89c0.369,0.551,0.581,0.925,0.635,1.121h0.032
	c-0.034-0.313-0.051-0.593-0.051-0.841c0-0.38-0.01-0.77-0.029-1.17h0.526c-0.02,0.348-0.029,0.783-0.029,1.306
	C64.878,8.545,64.888,9.022,64.907,9.45z"/>
</svg>
