<?xml version="1.0" encoding="utf-8"?>
<!-- Generator: Adobe Illustrator 17.0.2, SVG Export Plug-In . SVG Version: 6.00 Build 0)  -->
<!DOCTYPE svg PUBLIC "-//W3C//DTD SVG 1.1//EN" "http://www.w3.org/Graphics/SVG/1.1/DTD/svg11.dtd">
<svg version="1.1" id="Calque_1" xmlns="http://www.w3.org/2000/svg" xmlns:xlink="http://www.w3.org/1999/xlink" x="0px" y="0px"
	 width="1356px" height="271px" viewBox="0 0 1356 271" enable-background="new 0 0 1356 271" xml:space="preserve">
<rect x="3" y="45.297" fill="none" width="1369.865" height="271"/>
<g enable-background="new    ">
	<path fill="#BDFA10" d="M3,265.02V68.911c0-6.367,2.229-11.779,6.686-16.236s9.869-6.686,16.236-6.686h83.41
		c23.768,0,41.387,5.094,52.848,15.281c11.879,10.615,17.828,26.105,17.828,46.48c0,13.59-2.975,24.832-8.914,33.746
		c-5.094,8.496-13.162,14.645-24.195,18.465c9.76,3.402,16.555,8.496,20.375,15.281c3.82,6.367,6.148,17.191,7.004,32.473
		l1.273,26.105c0,2.547,0,5.312,0,8.277c0,2.975,0.209,5.73,0.637,8.277c1.273,7.641,3.82,12.525,7.641,14.645h-49.664
		c-2.129-4.238-3.402-8.695-3.82-13.371c-0.855-6.785-1.273-11.461-1.273-14.008l-0.637-23.559
		c-0.855-12.734-3.402-21.857-7.641-27.379c-4.676-4.666-12.953-7.004-24.832-7.004H48.207v85.32H3V265.02z M48.207,141.496h52.848
		c11.461,0,19.947-2.328,25.469-7.003c5.512-4.666,8.277-11.879,8.277-21.648c0-9.76-2.766-16.973-8.277-21.648
		c-5.094-5.094-12.734-7.641-22.922-7.641H48.207V141.496z"/>
	<path fill="#BDFA10" d="M300.984,258.016c-8.914,4.676-18.365,7.531-28.334,8.596c-9.979,1.055-18.783,1.592-26.424,1.592
		c-15.281,0-28.652-4.139-40.113-12.416s-17.191-21.967-17.191-41.068c0-17.828,5.193-30.562,15.6-38.203
		c10.396-7.641,23.658-12.734,39.795-15.281c2.119,0,4.666-0.318,7.641-0.955c2.965-0.637,6.367-1.164,10.188-1.592
		c18.674-2.547,28.016-8.059,28.016-16.555c0-6.367-3.293-10.505-9.869-12.416c-6.586-1.91-12.635-2.865-18.146-2.865
		c-5.949,0-11.252,0.855-15.918,2.547c-4.676,1.701-8.068,4.885-10.188,9.55h-42.66c1.691-13.152,7.641-23.976,17.828-32.472
		c11.461-9.76,27.797-14.645,49.027-14.645c23.768,0,41.596,4.039,53.484,12.098c12.307,8.496,18.465,20.375,18.465,35.656v57.941
		c0,16.982-3.084,30.244-9.232,39.795C316.793,246.873,309.471,253.777,300.984,258.016z M290.797,179.699
		c-5.949,2.975-14.227,5.73-24.832,8.277l-14.645,3.184c-7.641,2.129-13.162,4.885-16.555,8.277
		c-2.975,4.676-4.457,9.342-4.457,14.008c0,6.367,1.91,11.461,5.73,15.281c3.82,3.402,9.332,5.094,16.555,5.094
		c11.879,0,21.221-3.393,28.016-10.188c6.785-6.785,10.188-16.127,10.188-28.016L290.797,179.699L290.797,179.699z"/>
	<path fill="#BDFA10" d="M486.27,265.02h-22.285c-6.367,0-11.57-2.01-15.6-6.049c-4.039-4.029-6.049-9.232-6.049-15.6v-86.594
		c0-10.188-3.084-17.609-9.232-22.285c-6.158-4.666-13.053-7.004-20.693-7.004s-14.436,2.338-20.375,7.004
		c-5.949,4.675-8.914,12.097-8.914,22.285V265.02h-44.57v-99.328c0-28.861,7.531-48.171,22.604-57.941
		c15.062-9.76,31.727-15.062,49.982-15.918c18.674,0,35.865,4.885,51.574,14.645c15.699,9.77,23.559,29.508,23.559,59.214
		L486.27,265.02L486.27,265.02z"/>
	<path fill="#BDFA10" d="M605.336,45.352h21.648c5.939,0,11.033,2.229,15.281,6.686c4.238,4.457,6.367,9.451,6.367,14.963v124.16
		c0,30.145-8.705,50.52-26.105,61.125c-17.41,10.615-36.293,15.918-56.668,15.918c-11.043,0-21.867-1.811-32.473-5.412
		c-10.615-3.602-19.102-9.441-25.469-17.51c-12.316-15.699-18.465-37.139-18.465-64.309c0-26.742,6.148-48.171,18.465-64.308
		c12.734-16.555,29.07-24.832,49.027-24.832c10.605,0,19.947,2.129,28.016,6.367c8.486,5.094,15.281,11.68,20.375,19.738V45.352
		H605.336z M532.75,179.062c0,16.982,3.184,29.926,9.551,38.84s15.49,13.371,27.379,13.371c11.461,0,20.375-4.457,26.742-13.371
		c5.939-8.914,8.914-21.857,8.914-38.84c0-15.281-3.184-27.379-9.551-36.293c-6.795-8.486-15.918-12.734-27.379-12.734
		c-11.043,0-19.738,4.457-26.105,13.371C535.934,151.902,532.75,163.781,532.75,179.062z"/>
</g>
<g enable-background="new    ">
	<path fill="#03E312" d="M722.811,155.504c0-35.656,9.332-63.88,28.016-84.683c19.947-20.793,46.053-31.199,78.316-31.199
		c31.836,0,57.941,10.406,78.316,31.199c19.102,21.23,28.652,49.455,28.652,84.683c0,35.238-9.551,63.254-28.652,84.047
		c-19.529,20.375-45.635,30.562-78.316,30.562c-33.109,0-59.215-10.188-78.316-30.562
		C732.143,219.176,722.811,191.16,722.811,155.504z M768.018,155.504c0,24.623,5.303,43.297,15.918,56.031
		c10.605,13.162,25.678,19.738,45.207,19.738c19.102,0,34.164-6.576,45.207-19.738c11.033-13.58,16.555-32.254,16.555-56.031
		c0-23.767-5.521-42.66-16.555-56.667c-11.043-13.152-26.105-19.738-45.207-19.738c-19.529,0-34.602,6.586-45.207,19.738
		C773.32,111.999,768.018,130.891,768.018,155.504z"/>
	<path fill="#03E312" d="M946.299,196.891h44.57c1.691,12.734,6.576,21.648,14.645,26.742c8.486,5.949,20.156,8.914,35.02,8.914
		c13.152,0,23.131-2.328,29.926-7.004c6.785-4.666,10.188-11.461,10.188-20.375c0-13.58-18.148-23.168-57.305-33.109
		c0,0-10.755-3.276-17.03-5.046c-4.31-1.216-27.593-7.948-32.634-11.509c-8.496-4.666-14.436-11.461-17.828-20.375
		c-4.248-7.641-6.367-17.4-6.367-29.289c0-20.793,7.213-37.139,21.648-49.027c14.426-11.461,35.438-17.191,63.035-17.191
		c25.887,0,45.844,5.949,59.852,17.828c14.426,13.162,22.066,30.354,22.922,51.574h-25.469c-9.77,0-16.773-4.457-21.012-13.371
		c-2.129-4.238-5.094-7.85-8.914-10.824c-7.641-5.512-18.047-8.277-31.199-8.277c-12.734,0-21.867,2.338-27.379,7.004
		c-6.367,4.676-9.551,11.252-9.551,19.738c0,11.461,12.307,19.957,36.93,25.469c7.213,2.129,30.244,8.386,35.975,9.868
		c5.73,1.492,23.606,7.167,31.517,11.143s15.062,11.68,19.738,19.738c4.666,8.914,7.004,18.684,7.004,29.289
		c0,22.922-7.641,40.75-22.922,53.484c-15.281,11.889-36.93,17.828-64.945,17.828c-28.871,0-50.52-6.148-64.945-18.465
		C956.059,239.342,947.572,221.086,946.299,196.891z"/>
	<path fill="#03E312" d="M1133.494,265.02V68.911c0-6.367,2.229-11.779,6.686-16.236s9.869-6.895,16.236-7.322h43.934
		l43.297,167.457l43.297-167.457h66.855V265.02h-42.023V88.012l-44.57,177.007h-46.48l-45.207-177.007V265.02H1133.494z"/>
</g>
<path display="none" fill="#E20A13" d="M677.398,115.65c0,0,2.15-22.631,1.156-47.666c-0.545-13.718-3.164-29.554,0.77-41.853
	C686.92,2.388,705.989,1.65,710.581,2.07c9.864,0.902,14.947,3.631,20.684,10.475c1.84,2.195,3.249,4.955,4.301,8.161
	c2.458,7.489,3.824,17.701-4.237,31.002c-6.526,10.767-26.318,25.93-53.93,63.554"/>
<path display="none" fill="#6F150D" d="M705.015,29.321c5.106,0,9.245,4.164,9.245,9.301s-4.139,9.301-9.245,9.301
	s-9.245-4.164-9.245-9.301S699.909,29.321,705.015,29.321z"/>
<g>
	<g>
		<path fill="#E20A13" d="M718.881,3.049c-17.645-6.4-37.129,2.695-43.521,20.315c-8.354,23.03,0.37,52.868,6.49,81.776
			c23.718-18.072,49.029-35.578,57.407-58.599C745.668,28.928,736.526,9.449,718.881,3.049z"/>
	</g>
</g>
<path fill="#6F150D" d="M710.905,25.286c5.363,1.945,8.134,7.87,6.189,13.233c-1.945,5.363-7.87,8.134-13.233,6.189
	s-8.134-7.87-6.189-13.233C699.617,26.111,705.542,23.341,710.905,25.286z"/>
</svg>
